#!OML:ASF F:\VICON\USERDATA\INSTALL\rory3\rory3.ASF
:FULLY-SPECIFIED
:DEGREES
129
root 10.8748 17.8365 -5.69147 -1.29884 -5.66918 -0.959262
lowerback 9.89512 2.17644 2.59195
upperback 1.25607 3.19196 0.548574
thorax -4.12419 1.54154 -1.30637
lowerneck -18.0783 -8.73767 -14.5192
upperneck 25.19 -11.714 12.4984
head 13.1194 -5.10431 5.23999
rclavicle 2.33075e-014 9.34288e-015
rhumerus -28.6563 -10.1162 -83.0852
rradius 38.7466
rwrist 3.40572
rhand -14.1516 6.15106
rfingers 7.12502
rthumb 11.983 -23.4859
lclavicle 2.33075e-014 9.34288e-015
lhumerus -39.4555 7.38475 80.1103
lradius 30.8718
lwrist -9.15729
lhand -15.7753 24.1649
lfingers 7.12502
lthumb 10.4169 53.8869
rfemur 2.60682 7.52458 30.4575
rtibia 22.1228
rfoot -16.1433 2.88067
rtoes 12.1794
lfemur -21.5913 -8.65095 -14.1907
ltibia 18.9149
lfoot -6.67418 -3.87579
ltoes -10.9268
130
root 10.8634 17.8291 -5.56872 -1.22383 -6.24117 -0.892153
lowerback 9.73074 2.24779 2.52347
upperback 1.24668 3.27427 0.546731
thorax -4.04306 1.58469 -1.27305
lowerneck -17.9992 -8.70981 -14.4938
upperneck 25.2534 -11.6746 12.4137
head 13.1134 -5.09803 5.21319
rclavicle -1.14798e-014 6.16232e-015
rhumerus -28.3832 -9.7987 -83.1686
rradius 38.6107
rwrist 3.20605
rhand -14.687 8.0596
rfingers 7.12502
rthumb 11.4666 -21.6068
lclavicle -1.14798e-014 6.16232e-015
lhumerus -39.6539 7.64286 79.9672
lradius 30.5964
lwrist -9.43738
lhand -16.123 23.1089
lfingers 7.12502
lthumb 10.0815 52.8474
rfemur 3.06552 7.74117 30.4062
rtibia 21.9263
rfoot -16.3505 3.13437
rtoes 11.4921
lfemur -21.5447 -8.40964 -14.238
ltibia 17.4086
lfoot -6.70276 -5.19276
ltoes -11.7219
131
root 10.8527 17.8201 -5.4477 -1.16517 -6.78686 -0.866509
lowerback 9.68123 2.30004 2.53492
upperback 1.19426 3.34281 0.510546
thorax -4.06471 1.61742 -1.32464
lowerneck -17.9359 -8.67495 -14.4068
upperneck 25.3582 -11.6553 12.3528
head 13.1284 -5.0912 5.183
rclavicle -1.76918e-014 -1.47101e-014
rhumerus -28.2921 -9.30188 -83.4324
rradius 39.0865
rwrist 3.18572
rhand -14.767 6.83922
rfingers 7.12502
rthumb 11.3894 -22.8315
lclavicle -1.76918e-014 -1.47101e-014
lhumerus -39.9434 7.75455 79.779
lradius 30.4727
lwrist -9.61229
lhand -16.488 22.5536
lfingers 7.12502
lthumb 9.72935 52.3089
rfemur 3.5532 7.76723 30.3539
rtibia 21.7308
rfoot -16.5739 3.52716
rtoes 11.0366
lfemur -21.556 -8.10746 -14.271
ltibia 16.1397
lfoot -6.56327 -6.66741
ltoes -10.8276
132
root 10.8399 17.8131 -5.33109 -1.11478 -7.38995 -0.960922
lowerback 9.64754 2.38449 2.62481
upperback 1.17671 3.46347 0.508787
thorax -4.05415 1.6757 -1.3905
lowerneck -17.871 -8.62517 -14.2884
upperneck 25.4706 -11.6284 12.3041
head 13.1435 -5.07648 5.15438
rclavicle 1.13804e-014 6.95746e-015
rhumerus -28.1726 -8.88941 -83.653
rradius 39.4329
rwrist 3.10011
rhand -14.8245 6.3346
rfingers 7.12502
rthumb 11.334 -23.3391
lclavicle 1.13804e-014 6.95746e-015
lhumerus -40.0319 7.88192 79.5942
lradius 30.1481
lwrist -9.77184
lhand -16.8515 22.2575
lfingers 7.12502
lthumb 9.37861 52.0289
rfemur 4.06639 7.93773 30.4385
rtibia 21.5683
rfoot -16.5855 3.97936
rtoes 11.9299
lfemur -21.5521 -7.3591 -14.2742
ltibia 15.083
lfoot -6.37307 -8.56565
ltoes -10.4067
133
root 10.8264 17.8025 -5.2144 -1.03069 -7.95258 -0.96838
lowerback 9.49295 2.46556 2.64844
upperback 1.22737 3.56641 0.489592
thorax -3.90847 1.72922 -1.42672
lowerneck -17.827 -8.64277 -14.3093
upperneck 25.4651 -11.6694 12.3517
head 13.1445 -5.09311 5.16992
rclavicle -5.96354e-016 -6.75868e-015
rhumerus -27.7198 -8.79432 -83.7615
rradius 39.2911
rwrist 3.15295
rhand -14.8354 6.5512
rfingers 7.12502
rthumb 11.3235 -23.1231
lclavicle -5.96354e-016 -6.75868e-015
lhumerus -39.898 8.22407 79.3879
lradius 29.6949
lwrist -10.0084
lhand -16.5489 23.3889
lfingers 7.12502
lthumb 9.67057 53.1469
rfemur 4.5145 8.07381 30.4282
rtibia 21.3883
rfoot -16.4711 4.41438
rtoes 12.4936
lfemur -21.6631 -6.6127 -14.3985
ltibia 14.3479
lfoot -6.3331 -10.4772
ltoes -10.3805
134
root 10.815 17.7879 -5.0986 -1.02191 -8.42164 -0.826084
lowerback 9.41395 2.48335 2.53292
upperback 1.25976 3.57355 0.458959
thorax -3.83557 1.7358 -1.38974
lowerneck -17.7795 -8.63038 -14.3376
upperneck 25.4913 -11.6457 12.3269
head 13.1413 -5.09076 5.17126
rclavicle 2.98922e-014 6.36111e-015
rhumerus -27.2982 -8.70841 -83.8633
rradius 39.0536
rwrist 3.17179
rhand -14.9208 7.12774
rfingers 7.12502
rthumb 11.2411 -22.5511
lclavicle 2.98922e-014 6.36111e-015
lhumerus -39.9706 8.52218 79.2516
lradius 29.4528
lwrist -10.1108
lhand -16.7308 24.2753
lfingers 7.12502
lthumb 9.49507 54.0414
rfemur 5.01405 8.19023 30.2771
rtibia 21.2095
rfoot -16.4607 4.67705
rtoes 12.3287
lfemur -21.7251 -6.43206 -14.5676
ltibia 13.9187
lfoot -6.41253 -11.9283
ltoes -10.5505
135
root 10.8024 17.7847 -4.98133 -1.07076 -8.9124 -0.821773
lowerback 9.4109 2.51443 2.53643
upperback 1.27238 3.61517 0.472636
thorax -3.81976 1.75673 -1.38198
lowerneck -17.7498 -8.61368 -14.3274
upperneck 25.6288 -11.6365 12.2943
head 13.1866 -5.0911 5.16395
rclavicle -8.10048e-015 1.78906e-015
rhumerus -27.1655 -8.59866 -83.9329
rradius 39.0504
rwrist 3.17445
rhand -14.9567 7.88393
rfingers 7.12502
rthumb 11.2065 -21.7968
lclavicle -8.10048e-015 1.78906e-015
lhumerus -40.2252 8.58943 79.2253
lradius 29.3815
lwrist -10.0866
lhand -17.9264 22.8257
lfingers 7.12502
lthumb 8.34141 52.641
rfemur 5.57089 8.41321 30.3369
rtibia 21.1375
rfoot -16.5767 4.65372
rtoes 11.5384
lfemur -21.545 -6.63305 -14.4829
ltibia 13.6028
lfoot -6.49314 -12.7517
ltoes -12.162
136
root 10.7909 17.7855 -4.86281 -1.11698 -9.42757 -0.819166
lowerback 9.44898 2.5659 2.6007
upperback 1.27791 3.68936 0.436388
thorax -3.82574 1.7922 -1.46598
lowerneck -17.624 -8.61612 -14.2037
upperneck 25.6368 -11.6866 12.2522
head 13.1594 -5.11139 5.11917
rclavicle 3.02153e-014 3.18055e-015
rhumerus -27.0619 -8.4936 -84.0589
rradius 39.1102
rwrist 3.21485
rhand -15.0428 8.30907
rfingers 7.12502
rthumb 11.1235 -21.3761
lclavicle 3.02153e-014 3.18055e-015
lhumerus -40.3811 8.61904 79.1344
lradius 29.2361
lwrist -10.2251
lhand -19.1415 20.6426
lfingers 7.12502
lthumb 7.16859 50.5012
rfemur 6.03198 8.56203 30.3651
rtibia 21.2277
rfoot -16.5653 4.76349
rtoes 11.2888
lfemur -21.2446 -6.73941 -14.4423
ltibia 13.2715
lfoot -6.34751 -13.4218
ltoes -13.8884
137
root 10.7817 17.7756 -4.74465 -1.06136 -9.88448 -0.823853
lowerback 9.4194 2.55907 2.68111
upperback 1.26124 3.68654 0.407095
thorax -3.81971 1.78943 -1.53968
lowerneck -17.5232 -8.5923 -14.0749
upperneck 25.6373 -11.6726 12.1405
head 13.1176 -5.11042 5.05704
rclavicle -1.47101e-014 7.95139e-016
rhumerus -26.8778 -8.2216 -84.2571
rradius 39.1853
rwrist 3.16423
rhand -15.1481 8.28753
rfingers 7.12502
rthumb 11.0219 -21.4031
lclavicle -1.47101e-014 7.95139e-016
lhumerus -40.3927 8.93175 78.9284
lradius 28.8284
lwrist -10.4948
lhand -21.9414 17.4091
lfingers 7.12502
lthumb 4.46539 47.342
rfemur 6.31693 8.6899 30.3613
rtibia 21.3844
rfoot -16.2879 5.04471
rtoes 12.8399
lfemur -21.1979 -6.92526 -14.3761
ltibia 13.1744
lfoot -5.60474 -14.1149
ltoes -11.5328
